<svg viewBox="0 0 3249 300" xmlns="http://www.w3.org/2000/svg" fill-rule="evenodd" clip-rule="evenodd" stroke-linejoin="round" stroke-miterlimit="2"><g fill="#3730a3" fill-rule="nonzero"><path d="M883.13 212.492h-200c-10.337 0-18.75 8.413-18.75 18.75v62.5c0 3.429 2.821 6.25 6.25 6.25h225c3.429 0 6.25-2.821 6.25-6.25v-62.5c0-10.337-8.413-18.75-18.75-18.75zM937.555 39.317l-37.5-37.5c-2.424-2.424-6.413-2.424-8.838 0l-37.5 37.5c-2.423 2.424-2.423 6.413 0 8.837l37.5 37.5c2.427 2.414 6.404 2.42 8.838.013l37.5-37.5c2.418-2.432 2.418-6.418 0-8.85zM883.13 162.492c-3.429 0-6.25-2.821-6.25-6.25 0-10.15-1.7-20.275-5.037-30.125a6.25 6.25 0 01-.331-2.006c0-3.432 2.824-6.256 6.256-6.256a6.27 6.27 0 015.925 4.25c3.775 11.137 5.687 22.625 5.687 34.137 0 3.429-2.821 6.25-6.25 6.25z"/><path d="M893.805 70.567l-25-25c-2.424-2.424-6.413-2.424-8.838 0l-31.225 31.225-.037.025a6.267 6.267 0 00-1.817 4.411 6.277 6.277 0 004.392 5.977c3.325 2.675 13.75 13.725 22.187 23.187a6.23 6.23 0 004.475 2.1h.188c1.662 0 3.25-.663 4.425-1.825l31.25-31.25c2.418-2.432 2.418-6.418 0-8.85z"/><path d="M883.13 149.992h-31.525c-3.048-32.885-29.34-59.177-62.225-62.225v-24.15l24.85 4.15c.348.06.701.09 1.055.09 3.428 0 6.25-2.822 6.25-6.25a6.263 6.263 0 00-4.267-5.927 106.153 106.153 0 00-34.138-5.688c-58.587 0-106.25 47.662-106.25 106.25v37.5c0 3.429 2.821 6.25 6.25 6.25h200c3.429 0 6.25-2.821 6.25-6.25v-37.5c0-3.429-2.821-6.25-6.25-6.25z"/></g><path d="M95.215 153.094zm0 0L50.507 281.419H0L69.357 99.202h51.717l69.358 182.217h-50.508L95.215 153.094zM294.832 182.819h15.709c17.4 0 26.1-7.492 26.1-22.717 0-15.225-8.7-22.717-26.1-22.717h-15.709v45.434zm0 98.6h-47.366V99.202h75.4c20.541 0 36.25 5.317 47.125 15.95s16.192 25.617 16.192 44.95c0 19.334-5.317 34.317-16.192 44.95-10.875 10.634-26.584 15.95-47.125 15.95h-28.034v60.417zM494.932 182.819h15.709c17.4 0 26.1-7.492 26.1-22.717 0-15.225-8.7-22.717-26.1-22.717h-15.709v45.434zm0 98.6h-47.366V99.202h75.4c20.541 0 36.25 5.317 47.125 15.95s16.192 25.617 16.192 44.95c0 19.334-5.317 34.317-16.192 44.95-10.875 10.634-26.584 15.95-47.125 15.95h-28.034v60.417zM1044.24 190.31c0 7.25 1.45 14.017 4.108 20.059 2.658 6.042 6.525 11.358 11.117 15.95 4.591 4.592 10.15 7.975 16.433 10.392 6.042 2.658 12.567 3.866 19.575 3.866 7.008 0 13.534-1.208 19.817-3.866 6.042-2.417 11.6-5.8 16.433-10.392 4.592-4.592 8.459-9.908 11.117-15.95 2.658-6.042 4.108-12.808 4.108-20.058s-1.45-14.017-4.108-20.059c-2.658-6.041-6.525-11.358-11.117-15.95-4.833-4.592-10.391-7.975-16.433-10.633-6.283-2.417-12.809-3.625-19.817-3.625-7.008 0-13.533 1.208-19.575 3.625-6.283 2.658-11.842 6.041-16.433 10.633-4.592 4.592-8.459 9.909-11.117 15.95-2.658 6.042-4.108 12.809-4.108 20.059zm-49.542 0c0-13.533 2.417-26.1 7.492-37.941 5.075-11.6 11.841-21.75 20.783-30.45 8.942-8.7 19.575-15.467 31.9-20.542 12.325-4.833 25.858-7.25 40.6-7.25s28.275 2.417 40.6 7.25c12.325 5.075 22.959 11.842 32.142 20.542 8.942 8.7 15.708 18.85 20.783 30.45 5.075 11.842 7.492 24.408 7.492 37.942 0 13.533-2.417 26.1-7.492 37.7-5.075 11.841-11.841 21.991-20.783 30.691-9.183 8.7-19.817 15.467-32.142 20.3-12.325 5.075-25.858 7.492-40.6 7.492s-28.275-2.417-40.6-7.492c-12.325-4.833-22.958-11.6-31.9-20.3-8.942-8.7-15.708-18.85-20.783-30.691-5.075-11.6-7.492-24.167-7.492-37.7zM1310.071 244.686h10.392c11.842 0 20.542-1.45 25.617-4.592 5.075-3.142 7.733-7.975 7.733-14.742 0-6.766-2.658-11.6-7.733-14.741-5.075-3.142-13.775-4.592-25.617-4.592h-10.392v38.667zm0-73.95h8.7c14.742 0 22.234-5.8 22.234-17.642 0-11.842-7.492-17.642-22.234-17.642h-8.7v35.284zm-47.366-71.534h70.566c16.675 0 29.484 4.108 38.184 12.083 8.7 7.975 13.05 19.575 13.05 34.8 0 9.184-1.692 16.676-4.833 22.717-3.384 6.284-8.459 11.359-15.226 15.467 6.767 1.208 12.567 3.142 17.4 5.8a42.036 42.036 0 0111.6 9.908c2.9 3.867 5.076 8.217 6.284 13.05 1.208 4.834 1.933 9.909 1.933 15.467 0 8.458-1.45 16.192-4.35 22.717-3.141 6.525-7.25 12.083-12.566 16.675-5.559 4.591-12.084 7.975-19.817 10.15-7.734 2.175-16.434 3.383-26.1 3.383h-76.125V99.202zM1566.245 145.844c-5.075-4.109-10.392-7.25-15.467-9.425-5.075-1.934-10.15-2.9-14.983-2.9-6.042 0-11.117 1.45-14.984 4.35-3.866 2.9-5.8 6.766-5.8 11.358 0 3.142.967 5.8 2.9 7.975 1.934 2.175 4.592 3.867 7.734 5.317 3.141 1.692 6.525 2.9 10.633 4.108l11.6 3.625c15.467 5.075 26.825 12.084 34.075 20.542 7.009 8.7 10.634 20.058 10.634 33.833 0 9.425-1.45 17.884-4.592 25.375-3.142 7.492-7.733 14.017-13.775 19.334-6.042 5.558-13.534 9.666-22.234 12.808-8.941 2.9-18.85 4.35-29.966 4.35-22.959 0-44.467-6.767-64.042-20.542l20.3-38.183c7.008 6.283 14.017 10.875 21.025 14.017 7.008 3.141 13.775 4.591 20.542 4.591 7.733 0 13.533-1.691 17.4-5.316 3.625-3.625 5.558-7.492 5.558-12.084 0-2.658-.483-5.075-1.45-7.25-.967-1.933-2.658-3.866-4.833-5.558-2.175-1.692-5.075-3.142-8.7-4.592-3.625-1.45-8.217-3.141-13.292-4.833-6.042-1.933-12.083-4.108-17.883-6.525-6.042-2.175-11.117-5.317-15.709-9.183-4.591-3.867-8.458-8.7-11.116-14.742-2.9-5.8-4.35-13.292-4.35-22.234 0-8.941 1.45-17.158 4.591-24.65 2.9-7.25 7.009-13.533 12.567-18.85 5.317-5.075 11.842-9.183 19.817-12.083 7.733-2.9 16.433-4.35 26.1-4.35 8.941 0 18.366 1.208 28.275 3.625 9.908 2.658 19.333 6.283 28.275 11.117l-18.85 36.975zM1762.23 139.319h-56.309v30.45h53.167v40.117h-53.167v31.416h56.309v40.117h-103.675V99.202h103.675v40.117zM1879.921 180.644h8.942c9.425 0 16.433-1.933 21.508-5.8 5.075-3.867 7.492-9.425 7.492-16.675s-2.417-12.809-7.492-16.675c-5.075-3.867-12.083-5.8-21.508-5.8h-8.942v44.95zm104.159 100.775h-58.967l-45.192-70.083v70.083h-47.366V99.202h73.708c10.15 0 19.092 1.45 26.583 4.35 7.492 3.142 13.776 7.25 18.85 12.325 4.834 5.075 8.459 11.117 11.117 17.883 2.417 6.767 3.625 14.017 3.625 21.75 0 13.776-3.383 25.134-9.908 33.592-6.767 8.7-16.675 14.5-29.725 17.642l57.275 74.675zM2065.528 99.202l43.983 110.925 44.226-110.925h51.475l-76.85 182.217h-37.7l-76.609-182.217h51.475zM2323.861 153.094zm0 0l-44.708 128.325h-50.508l69.358-182.217h51.717l69.358 182.217h-50.508l-44.709-128.325zM2537.261 139.319v142.1h-47.366v-142.1h-38.909V99.202h125.184v40.117h-38.909zM2673.07 190.31c0 7.25 1.45 14.017 4.108 20.059 2.658 6.042 6.525 11.358 11.117 15.95 4.591 4.592 10.15 7.975 16.433 10.392 6.042 2.658 12.567 3.866 19.575 3.866 7.008 0 13.534-1.208 19.817-3.866 6.042-2.417 11.6-5.8 16.433-10.392 4.592-4.592 8.459-9.908 11.117-15.95 2.658-6.042 4.108-12.808 4.108-20.058s-1.45-14.017-4.108-20.059c-2.658-6.041-6.525-11.358-11.117-15.95-4.833-4.592-10.391-7.975-16.433-10.633-6.283-2.417-12.809-3.625-19.817-3.625-7.008 0-13.533 1.208-19.575 3.625-6.283 2.658-11.842 6.041-16.433 10.633-4.592 4.592-8.459 9.909-11.117 15.95-2.658 6.042-4.108 12.809-4.108 20.059zm-49.542 0c0-13.533 2.417-26.1 7.492-37.941 5.075-11.6 11.841-21.75 20.783-30.45 8.942-8.7 19.575-15.467 31.9-20.542 12.325-4.833 25.858-7.25 40.6-7.25s28.275 2.417 40.6 7.25c12.325 5.075 22.959 11.842 32.142 20.542 8.942 8.7 15.708 18.85 20.783 30.45 5.075 11.842 7.492 24.408 7.492 37.942 0 13.533-2.417 26.1-7.492 37.7-5.075 11.841-11.841 21.991-20.783 30.691-9.183 8.7-19.817 15.467-32.142 20.3-12.325 5.075-25.858 7.492-40.6 7.492s-28.275-2.417-40.6-7.492c-12.325-4.833-22.958-11.6-31.9-20.3-8.942-8.7-15.708-18.85-20.783-30.691-5.075-11.6-7.492-24.167-7.492-37.7zM2938.911 180.644h8.942c9.425 0 16.433-1.933 21.508-5.8 5.075-3.867 7.492-9.425 7.492-16.675s-2.417-12.809-7.492-16.675c-5.075-3.867-12.083-5.8-21.508-5.8h-8.942v44.95zm104.159 100.775h-58.967l-45.192-70.083v70.083h-47.366V99.202h73.708c10.15 0 19.092 1.45 26.583 4.35 7.492 3.142 13.776 7.25 18.85 12.325 4.834 5.075 8.459 11.117 11.117 17.883 2.417 6.767 3.625 14.017 3.625 21.75 0 13.776-3.383 25.134-9.908 33.592-6.767 8.7-16.675 14.5-29.725 17.642l57.275 74.675zM3134.418 193.936l-66.458-94.734h56.55l33.833 49.783 33.592-49.783h56.55l-66.7 94.734v87.483h-47.367v-87.483z" fill-rule="nonzero"/></svg>